<svg width="430" height="93" viewBox="0 0 430 93" fill="none" xmlns="http://www.w3.org/2000/svg">
<path d="M149.98 16.6042C152.749 17.1298 154.799 18.1636 156.131 19.7056C157.462 21.2476 158.128 23.175 158.128 25.4879C158.128 29.0274 156.674 31.831 153.765 33.8986C150.856 35.9662 146.388 37 140.361 37H114.077V0.203369H141.254C146.266 0.203369 150.05 1.06196 152.609 2.77914C155.202 4.46127 156.499 6.72164 156.499 9.56024C156.499 11.3825 155.955 12.907 154.869 14.1335C153.783 15.325 152.153 16.1486 149.98 16.6042ZM130.741 9.66537V15.0272H136.103C137.224 15.0272 138.065 14.7994 138.626 14.3438C139.222 13.8882 139.52 13.2399 139.52 12.3988C139.52 10.5765 138.381 9.66537 136.103 9.66537H130.741ZM136.313 27.6432C137.75 27.6432 138.836 27.3628 139.572 26.8021C140.308 26.2414 140.676 25.4529 140.676 24.4366C140.676 22.4741 139.327 21.4929 136.628 21.4929H130.741V27.6432H136.313Z" fill="white"/>
<path d="M199.559 26.1187V37H162.972V0.203369H199.454V11.0847H180.057V14.3438H198.613V22.5442H180.057V26.1187H199.559Z" fill="white"/>
<path d="M233.257 31.428H221.009L219.432 37H202.716L214.754 0.203369H240.039L252.024 37H234.834L233.257 31.428ZM230.892 23.1224L227.16 9.98077L223.375 23.1224H230.892Z" fill="white"/>
<path d="M300.782 37L299.362 12.4514L293.265 37H276.391L270.503 13.345L269.347 37H254.839L256.889 0.203369H281.385L285.748 17.4978L290.216 0.203369H314.449L316.92 37H300.782Z" fill="white"/>
<path d="M18.4356 92.0547C14.9202 92.0547 11.6952 91.6573 8.76059 90.8625C5.82598 90.0371 3.27349 88.9519 1.10311 87.6069V78.3446C2.9678 79.5979 5.29103 80.6372 8.07279 81.4626C10.8851 82.2574 13.6669 82.6548 16.4181 82.6548C17.8854 82.6548 18.94 82.5325 19.5819 82.2879C20.2544 82.0434 20.5907 81.646 20.5907 81.0958C20.5907 80.6067 20.3614 80.2245 19.9029 79.9494C19.4749 79.6743 18.6802 79.4603 17.5185 79.3075L13.1166 78.6655C8.92871 78.0542 5.8107 76.9384 3.76259 75.3183C1.71448 73.6981 0.69043 71.5125 0.69043 68.7613C0.69043 66.6214 1.36294 64.7415 2.70797 63.1213C4.05299 61.4706 6.11639 60.1867 8.89814 59.2697C11.7105 58.322 15.2259 57.8482 19.4444 57.8482C25.6804 57.8482 30.7548 58.9028 34.6676 61.0121V70.0451C33.1392 69.2504 31.2745 68.5931 29.0735 68.0735C26.9032 67.5538 24.4882 67.294 21.8287 67.294C19.9335 67.294 18.619 67.4315 17.8854 67.7066C17.1517 67.9512 16.7849 68.3486 16.7849 68.8988C16.7849 69.2962 16.9989 69.6172 17.4268 69.8617C17.8548 70.0757 18.7107 70.2438 19.9946 70.3661L24.7175 70.9164C28.722 71.3749 31.733 72.3531 33.7506 73.851C35.7681 75.3183 36.7769 77.4886 36.7769 80.3621C36.7769 82.7465 35.9974 84.8251 34.4384 86.5981C32.9099 88.3406 30.7548 89.6856 27.9731 90.6332C25.2219 91.5808 22.0427 92.0547 18.4356 92.0547Z" fill="white"/>
<path d="M72.9489 81.5084V91H41.0351V58.9028H72.8572V68.3944H55.9374V71.2373H72.1236V78.3904H55.9374V81.5084H72.9489Z" fill="white"/>
<path d="M100.83 91L93.0355 78.3446V91H78.1332V58.9028H104.545C107.204 58.9028 109.512 59.3461 111.468 60.2326C113.455 61.1191 114.984 62.403 116.054 64.0842C117.124 65.7349 117.659 67.6913 117.659 69.9534C117.659 72.6435 116.91 74.8597 115.412 76.6021C113.944 78.314 112.126 79.3839 109.955 79.8119L117.796 91H100.83ZM97.85 74.8597C99.2562 74.8597 100.341 74.5693 101.106 73.9885C101.87 73.3771 102.252 72.5212 102.252 71.4207C102.252 70.3814 101.885 69.5866 101.151 69.0364C100.418 68.4861 99.3632 68.211 97.9876 68.211H93.0355V74.8597H97.85Z" fill="white"/>
<path d="M153.862 81.5084V91H121.948V58.9028H153.77V68.3944H136.85V71.2373H153.036V78.3904H136.85V81.5084H153.862Z" fill="white"/>
<path d="M190.96 81.5084V91H159.046V58.9028H190.868V68.3944H173.948V71.2373H190.135V78.3904H173.948V81.5084H190.96Z" fill="white"/>
<path d="M238.925 58.9028L224.344 81.5543V91H208.066V81.5543L193.485 58.9028H210.45L216.136 69.1739L221.959 58.9028H238.925Z" fill="white"/>
<path d="M259.171 92.1005C254.616 92.1005 250.642 91.3363 247.249 89.8079C243.856 88.2488 241.242 86.1396 239.408 83.4801C237.604 80.8206 236.703 77.886 236.703 74.6763C236.703 71.3749 237.604 68.4556 239.408 65.9184C241.212 63.3506 243.81 61.3636 247.203 59.9575C250.596 58.5207 254.601 57.8024 259.217 57.8024C263.802 57.8024 267.776 58.5207 271.138 59.9575C274.532 61.3636 277.13 63.3506 278.933 65.9184C280.737 68.4556 281.639 71.3749 281.639 74.6763C281.639 77.9166 280.722 80.8665 278.888 83.526C277.084 86.1549 274.486 88.2488 271.093 89.8079C267.699 91.3363 263.725 92.1005 259.171 92.1005ZM259.171 81.1416C261.097 81.1416 262.64 80.5608 263.802 79.3992C264.963 78.2376 265.544 76.7091 265.544 74.8139C265.544 72.9492 264.963 71.4819 263.802 70.412C262.671 69.3115 261.127 68.7613 259.171 68.7613C257.214 68.7613 255.655 69.3115 254.494 70.412C253.363 71.4819 252.797 72.9492 252.797 74.8139C252.797 76.7091 253.378 78.2376 254.54 79.3992C255.701 80.5608 257.245 81.1416 259.171 81.1416Z" fill="white"/>
<path d="M320.458 69.9076H309.729V91H294.826V69.9076H283.821V58.9028H320.458V69.9076Z" fill="white"/>
<path d="M363.615 58.9028V91H348.713V79.2616H339.267V91H324.365V58.9028H339.267V69.7242H348.713V58.9028H363.615Z" fill="white"/>
<path d="M369.299 58.857H384.201V91H369.299V58.857Z" fill="white"/>
<path d="M429.354 58.9028V91H411.38L402.484 73.3007V91H389.829V58.9028H408.124L416.745 76.4646V58.9028H429.354Z" fill="white"/>
<rect x="1.16699" y="17.5776" width="88.959" height="1.61744" fill="white"/>
<rect x="342.063" y="17.5776" width="87.3415" height="1.61744" fill="white"/>
</svg>
