<svg width="3629" height="134" viewBox="0 0 3629 134" fill="none" xmlns="http://www.w3.org/2000/svg">
<g clip-path="url(#clip0_94_376)">
<g opacity="0.6">
<path d="M3546.12 127.69H3521.23V133.69H3546.12V127.69Z" fill="white"/>
</g>
<g opacity="0.4">
<path d="M3603.13 37.1101H3598.13V48.4201H3603.13V37.1101Z" fill="white"/>
</g>
<path opacity="0.3" d="M3546.13 115.09V90.1702H3521.21V115.09H3546.13Z" fill="#212121"/>
<g opacity="0.75">
<path d="M3534.67 96.1101H3532.67V108.61H3534.67V96.1101Z" fill="white"/>
<path d="M3539.93 101.35H3527.43V103.35H3539.93V101.35Z" fill="white"/>
</g>
<path opacity="0.9" d="M3628.16 37.1101H3613.27V48.4201H3628.16V37.1101Z" fill="#FA4570"/>
<g opacity="0.6">
<path d="M106.94 127.69H82.0498V133.69H106.94V127.69Z" fill="white"/>
</g>
<g opacity="0.4">
<path d="M30.0303 37.1101H25.0303V48.4201H30.0303V37.1101Z" fill="white"/>
</g>
<path opacity="0.3" d="M106.95 115.1V90.1802H82.0302V115.1H106.95Z" fill="#212121"/>
<g opacity="0.75">
<path d="M95.4902 96.1101H93.4902V108.61H95.4902V96.1101Z" fill="white"/>
<path d="M100.75 101.35H88.25V103.35H100.75V101.35Z" fill="white"/>
</g>
<path opacity="0.9" d="M14.89 37.1101H0V48.4201H14.89V37.1101Z" fill="#FA4570"/>
<g opacity="0.2">
<path d="M1665.84 41.21H1540.95V44.21H1665.84V41.21Z" fill="white"/>
</g>
<g opacity="0.2">
<path d="M1525.84 41.21H1400.95V44.21H1525.84V41.21Z" fill="white"/>
</g>
<g opacity="0.2">
<path d="M1385.84 41.21H1260.95V44.21H1385.84V41.21Z" fill="white"/>
</g>
<g opacity="0.2">
<path d="M1245.84 41.21H1120.95V44.21H1245.84V41.21Z" fill="white"/>
</g>
<g opacity="0.2">
<path d="M1105.84 41.21H980.95V44.21H1105.84V41.21Z" fill="white"/>
</g>
<g opacity="0.2">
<path d="M965.84 41.21H840.95V44.21H965.84V41.21Z" fill="white"/>
</g>
<g opacity="0.2">
<path d="M825.84 41.21H700.95V44.21H825.84V41.21Z" fill="white"/>
</g>
<g opacity="0.8">
<path d="M685.84 39.71H560.95V45.71H685.84V39.71Z" fill="white"/>
</g>
<g opacity="0.75">
<path d="M545.84 39.71H420.95V45.71H545.84V39.71Z" fill="white"/>
</g>
<g opacity="0.75">
<path d="M405.84 39.71H280.95V45.71H405.84V39.71Z" fill="white"/>
</g>
<g opacity="0.75">
<path d="M2365.84 39.71H2240.95V45.71H2365.84V39.71Z" fill="white"/>
</g>
<g opacity="0.2">
<path d="M2225.84 41.21H2100.95V44.21H2225.84V41.21Z" fill="white"/>
</g>
<g opacity="0.2">
<path d="M2085.84 41.21H1960.95V44.21H2085.84V41.21Z" fill="white"/>
</g>
<g opacity="0.2">
<path d="M1945.84 41.21H1820.95V44.21H1945.84V41.21Z" fill="white"/>
</g>
<g opacity="0.2">
<path d="M1805.84 41.21H1680.95V44.21H1805.84V41.21Z" fill="white"/>
</g>
<g opacity="0.75">
<path d="M2505.84 39.71H2380.95V45.71H2505.84V39.71Z" fill="white"/>
</g>
<g opacity="0.9">
<path d="M3205.84 39.71H3080.95V45.71H3205.84V39.71Z" fill="#FA4570"/>
</g>
<g opacity="0.75">
<path d="M3065.84 39.71H2940.95V45.71H3065.84V39.71Z" fill="white"/>
</g>
<g opacity="0.75">
<path d="M2925.84 39.71H2800.95V45.71H2925.84V39.71Z" fill="white"/>
</g>
<g opacity="0.2">
<path d="M2785.84 41.21H2660.95V44.21H2785.84V41.21Z" fill="white"/>
</g>
<g opacity="0.2">
<path d="M2645.84 41.21H2520.95V44.21H2645.84V41.21Z" fill="white"/>
</g>
<g opacity="0.2">
<path d="M3345.84 41.21H3220.95V44.21H3345.84V41.21Z" fill="white"/>
</g>
<g opacity="0.7">
<path d="M422.21 21.1201H429.02V22.7501H423.98V25.4701H428.13V27.1001H423.98V31.4901H422.21V21.1201Z" fill="white"/>
<path d="M438.77 21.1201V31.4901H436.82L432.42 23.7501V31.4901H430.77V21.1201H432.72L437.12 28.8401V21.1201H438.77Z" fill="white"/>
<path d="M452.22 33.5901H443.99V32.1101H452.22V33.5901Z" fill="white"/>
<path d="M458.97 24.2001H457.24V23.1301C457.24 22.5401 457.45 22.0501 457.85 21.6601C458.25 21.2701 458.75 21.0701 459.36 21.0701H462.18C462.8 21.0701 463.3 21.2701 463.7 21.6601C464.1 22.0501 464.29 22.5401 464.29 23.1301V24.8401C464.29 25.3701 464.11 25.7901 463.77 26.0801C463.43 26.3701 462.9 26.6601 462.17 26.9301L459.61 27.9101C459.45 27.9701 459.34 28.0301 459.3 28.0501C459.26 28.0801 459.18 28.1201 459.09 28.1801C459 28.2401 458.94 28.3001 458.91 28.3701C458.88 28.4401 458.87 28.5301 458.87 28.6301V29.8801H464.34V31.4901H457.1V28.3201C457.1 28.0301 457.14 27.7901 457.25 27.5701C457.35 27.3501 457.52 27.1701 457.74 27.0101C457.96 26.8501 458.17 26.7201 458.38 26.6201C458.59 26.5201 458.87 26.4001 459.24 26.2601L461.81 25.2801C462 25.2101 462.13 25.1501 462.21 25.1101C462.28 25.0701 462.36 25.0101 462.43 24.9201C462.5 24.8301 462.53 24.7201 462.53 24.5901V23.5001C462.53 23.2701 462.47 23.0801 462.34 22.9401C462.21 22.8001 462.03 22.7201 461.79 22.7201H459.71C459.47 22.7201 459.28 22.7901 459.15 22.9201C459.02 23.0501 458.93 23.2401 458.94 23.4801L458.97 24.1901V24.2001Z" fill="white"/>
<path d="M467.91 22.7801V25.8501L468.38 25.4701C468.96 25.0101 469.49 24.7501 470.03 24.7501H471.17C471.78 24.7501 472.28 24.9401 472.68 25.3301C473.08 25.7201 473.29 26.2101 473.29 26.8001V29.4901C473.29 30.0801 473.1 30.5701 472.7 30.9601C472.3 31.3501 471.8 31.5401 471.18 31.5401H468.18C467.56 31.5401 467.06 31.3501 466.66 30.9601C466.26 30.5701 466.07 30.0801 466.07 29.4901V28.4701H467.84V29.1901C467.84 29.6901 468.09 29.9401 468.58 29.9401H470.81C471.3 29.9401 471.55 29.6901 471.55 29.1901V27.0401C471.55 26.7901 471.49 26.6101 471.36 26.4801C471.23 26.3501 471.05 26.2801 470.81 26.2801H469.95C469.42 26.2801 468.92 26.4101 468.44 26.6801L467.97 26.9501L466.2 26.4301V21.1101H473.1V22.7401L467.92 22.7701L467.91 22.7801Z" fill="white"/>
</g>
<g opacity="0.7">
<path d="M2242.21 21.1201H2249.02V22.7501H2243.98V25.4701H2248.13V27.1001H2243.98V31.4901H2242.21V21.1201Z" fill="white"/>
<path d="M2258.77 21.1201V31.4901H2256.82L2252.42 23.7501V31.4901H2250.77V21.1201H2252.72L2257.12 28.8401V21.1201H2258.77Z" fill="white"/>
<path d="M2272.22 33.5901H2263.99V32.1101H2272.22V33.5901Z" fill="white"/>
<path d="M2278.68 29.2201C2278.68 29.4501 2278.75 29.6401 2278.89 29.7701C2279.02 29.9001 2279.22 29.9701 2279.45 29.9701H2281.7C2281.94 29.9701 2282.13 29.9001 2282.26 29.7701C2282.39 29.6401 2282.47 29.4501 2282.47 29.2201V27.7101C2282.47 27.2201 2282.17 26.9701 2281.57 26.9701H2279.37V25.4301H2281.57C2281.87 25.4301 2282.07 25.3701 2282.19 25.2701C2282.31 25.1701 2282.37 24.9701 2282.37 24.6801V23.4301C2282.37 23.2001 2282.31 23.0101 2282.18 22.8801C2282.05 22.7501 2281.87 22.6801 2281.63 22.6801H2279.62C2279.38 22.6801 2279.21 22.7501 2279.07 22.8801C2278.94 23.0101 2278.88 23.2001 2278.88 23.4301V24.1501H2277.11V23.1601C2277.11 22.5701 2277.32 22.0801 2277.72 21.6901C2278.12 21.3001 2278.62 21.1001 2279.23 21.1001H2282.04C2282.65 21.1001 2283.15 21.3001 2283.55 21.6901C2283.95 22.0801 2284.16 22.5701 2284.16 23.1601V24.6401C2284.16 25.3201 2283.85 25.8401 2283.21 26.2001C2283.55 26.3401 2283.82 26.5501 2284.01 26.8201C2284.2 27.0901 2284.29 27.4001 2284.29 27.7401V29.4801C2284.29 30.0701 2284.08 30.5601 2283.68 30.9501C2283.28 31.3401 2282.78 31.5301 2282.17 31.5301H2279.13C2278.52 31.5301 2278.02 31.3401 2277.62 30.9501C2277.22 30.5601 2277.01 30.0701 2277.01 29.4801V28.4901H2278.78L2278.69 29.2201H2278.68Z" fill="white"/>
<path d="M2293.31 24.6601C2293.28 25.3401 2293 25.8601 2292.36 26.2201C2292.7 26.3601 2292.97 26.5701 2293.16 26.8401C2293.35 27.1101 2293.44 27.4201 2293.44 27.7601V29.4901C2293.44 30.0801 2293.23 30.5701 2292.83 30.9601C2292.43 31.3501 2291.93 31.5401 2291.32 31.5401H2288.19C2287.57 31.5401 2287.07 31.3501 2286.67 30.9601C2286.27 30.5701 2286.08 30.0801 2286.08 29.4901V27.7601C2286.08 27.4101 2286.17 27.1001 2286.36 26.8201C2286.55 26.5401 2286.82 26.3301 2287.16 26.1901C2286.53 25.8301 2286.21 25.3101 2286.21 24.6301V23.1301C2286.21 22.5401 2286.42 22.0501 2286.82 21.6601C2287.22 21.2701 2287.74 21.0701 2288.36 21.0701H2291.26C2291.87 21.0701 2292.37 21.2701 2292.77 21.6601C2293.17 22.0501 2293.4 22.5401 2293.38 23.1301L2293.32 24.6601H2293.31ZM2288.64 26.9801C2288.05 26.9801 2287.75 27.2301 2287.75 27.7301V29.2301C2287.75 29.4601 2287.81 29.6501 2287.94 29.7801C2288.07 29.9101 2288.25 29.9801 2288.49 29.9801H2290.84C2291.08 29.9801 2291.27 29.9101 2291.4 29.7801C2291.53 29.6501 2291.61 29.4601 2291.61 29.2301V27.7301C2291.61 27.2301 2291.32 26.9801 2290.71 26.9801H2288.64ZM2288.63 22.6901C2288.39 22.6901 2288.22 22.7601 2288.08 22.8901C2287.94 23.0201 2287.89 23.2101 2287.89 23.4401V24.7101C2287.89 24.9801 2287.95 25.1701 2288.07 25.2701C2288.19 25.3701 2288.4 25.4301 2288.68 25.4301H2290.73C2291.03 25.4301 2291.23 25.3701 2291.35 25.2701C2291.47 25.1701 2291.53 24.9801 2291.53 24.7101V23.4401C2291.53 23.2101 2291.47 23.0201 2291.34 22.8901C2291.21 22.7601 2291.03 22.6901 2290.79 22.6901H2288.63Z" fill="white"/>
</g>
<g opacity="0.7">
<path d="M2382.21 21.1201H2389.02V22.7501H2383.98V25.4701H2388.13V27.1001H2383.98V31.4901H2382.21V21.1201Z" fill="white"/>
<path d="M2398.77 21.1201V31.4901H2396.82L2392.42 23.7501V31.4901H2390.77V21.1201H2392.72L2397.12 28.8401V21.1201H2398.77Z" fill="white"/>
<path d="M2412.22 33.5901H2403.99V32.1101H2412.22V33.5901Z" fill="white"/>
<path d="M2418.68 29.2201C2418.68 29.4501 2418.75 29.6401 2418.89 29.7701C2419.02 29.9001 2419.22 29.9701 2419.45 29.9701H2421.7C2421.94 29.9701 2422.13 29.9001 2422.26 29.7701C2422.39 29.6401 2422.47 29.4501 2422.47 29.2201V27.7101C2422.47 27.2201 2422.17 26.9701 2421.57 26.9701H2419.37V25.4301H2421.57C2421.87 25.4301 2422.07 25.3701 2422.19 25.2701C2422.31 25.1701 2422.37 24.9701 2422.37 24.6801V23.4301C2422.37 23.2001 2422.31 23.0101 2422.18 22.8801C2422.05 22.7501 2421.87 22.6801 2421.63 22.6801H2419.62C2419.38 22.6801 2419.21 22.7501 2419.07 22.8801C2418.94 23.0101 2418.88 23.2001 2418.88 23.4301V24.1501H2417.11V23.1601C2417.11 22.5701 2417.32 22.0801 2417.72 21.6901C2418.12 21.3001 2418.62 21.1001 2419.23 21.1001H2422.04C2422.65 21.1001 2423.15 21.3001 2423.55 21.6901C2423.95 22.0801 2424.16 22.5701 2424.16 23.1601V24.6401C2424.16 25.3201 2423.85 25.8401 2423.21 26.2001C2423.55 26.3401 2423.82 26.5501 2424.01 26.8201C2424.2 27.0901 2424.29 27.4001 2424.29 27.7401V29.4801C2424.29 30.0701 2424.08 30.5601 2423.68 30.9501C2423.28 31.3401 2422.78 31.5301 2422.17 31.5301H2419.13C2418.52 31.5301 2418.02 31.3401 2417.62 30.9501C2417.22 30.5601 2417.01 30.0701 2417.01 29.4801V28.4901H2418.78L2418.69 29.2201H2418.68Z" fill="white"/>
<path d="M2428.02 29.1701C2427.99 29.6701 2428.27 29.9201 2428.77 29.9201H2430.85C2431.35 29.9201 2431.6 29.6701 2431.6 29.1701V26.4201L2431.14 26.7901C2430.56 27.2701 2430.02 27.5101 2429.5 27.5101H2428.23C2427.62 27.5101 2427.12 27.3101 2426.72 26.9201C2426.32 26.5301 2426.13 26.0401 2426.13 25.4501V23.1301C2426.13 22.5401 2426.34 22.0501 2426.74 21.6601C2427.14 21.2701 2427.64 21.0701 2428.25 21.0701H2431.26C2431.87 21.0701 2432.37 21.2701 2432.77 21.6601C2433.17 22.0501 2433.38 22.5401 2433.38 23.1301V29.4701C2433.38 30.0601 2433.17 30.5501 2432.77 30.9401C2432.37 31.3301 2431.87 31.5201 2431.26 31.5201H2428.38C2427.77 31.5201 2427.27 31.3301 2426.87 30.9401C2426.47 30.5501 2426.26 30.0601 2426.26 29.4701V28.5601H2428.03L2428 29.1601L2428.02 29.1701ZM2431.6 23.4401C2431.6 22.9401 2431.35 22.6901 2430.85 22.6901H2428.63C2428.39 22.6901 2428.22 22.7501 2428.08 22.8801C2427.95 23.0101 2427.89 23.2001 2427.89 23.4401V25.2101C2427.89 25.7101 2428.14 25.9601 2428.66 25.9601H2429.63C2430.16 25.9601 2430.68 25.8401 2431.15 25.5601L2431.61 25.2901V23.4501L2431.6 23.4401Z" fill="white"/>
</g>
<g opacity="0.85">
<path d="M3082.21 21.1201H3089.02V22.7501H3083.98V25.4701H3088.13V27.1001H3083.98V31.4901H3082.21V21.1201Z" fill="#FA4570"/>
<path d="M3098.77 21.1201V31.4901H3096.82L3092.42 23.7501V31.4901H3090.77V21.1201H3092.72L3097.12 28.8401V21.1201H3098.77Z" fill="#FA4570"/>
<path d="M3112.22 33.5901H3103.99V32.1101H3112.22V33.5901Z" fill="#FA4570"/>
<path d="M3123.71 29.2501V31.5001H3121.98V29.2501H3116.9L3116.61 27.9401L3122.1 21.1301H3123.71V27.7101H3125.22V29.2501H3123.71ZM3121.98 27.7101V23.6201L3118.76 27.7101H3121.98Z" fill="#FA4570"/>
<path d="M3133.18 29.2501V31.5001H3131.45V29.2501H3126.37L3126.07 27.9401L3131.57 21.1301H3133.18V27.7101H3134.69V29.2501H3133.18ZM3131.45 27.7101V23.6201L3128.23 27.7101H3131.45Z" fill="#FA4570"/>
</g>
<g opacity="0.7">
<path d="M243.95 0H220.95V6H243.95V0Z" fill="white"/>
</g>
<g opacity="0.7">
<path d="M3405.85 0H3382.85V6H3405.85V0Z" fill="white"/>
</g>
<g opacity="0.7">
<path d="M282.21 21.1201H289.02V22.7501H283.98V25.4701H288.13V27.1001H283.98V31.4901H282.21V21.1201Z" fill="white"/>
<path d="M298.77 21.1201V31.4901H296.82L292.42 23.7501V31.4901H290.77V21.1201H292.72L297.12 28.8401V21.1201H298.77Z" fill="white"/>
<path d="M312.22 33.5901H303.99V32.1101H312.22V33.5901Z" fill="white"/>
<path d="M318.97 24.2001H317.24V23.1301C317.24 22.5401 317.45 22.0501 317.85 21.6601C318.25 21.2701 318.75 21.0701 319.36 21.0701H322.18C322.8 21.0701 323.3 21.2701 323.7 21.6601C324.1 22.0501 324.29 22.5401 324.29 23.1301V24.8401C324.29 25.3701 324.11 25.7901 323.77 26.0801C323.43 26.3701 322.9 26.6601 322.17 26.9301L319.61 27.9101C319.45 27.9701 319.34 28.0301 319.3 28.0501C319.26 28.0801 319.18 28.1201 319.09 28.1801C319 28.2401 318.94 28.3001 318.91 28.3701C318.88 28.4401 318.87 28.5301 318.87 28.6301V29.8801H324.34V31.4901H317.1V28.3201C317.1 28.0301 317.14 27.7901 317.25 27.5701C317.35 27.3501 317.52 27.1701 317.74 27.0101C317.96 26.8501 318.17 26.7201 318.38 26.6201C318.59 26.5201 318.87 26.4001 319.24 26.2601L321.81 25.2801C322 25.2101 322.13 25.1501 322.21 25.1101C322.28 25.0701 322.36 25.0101 322.43 24.9201C322.5 24.8301 322.53 24.7201 322.53 24.5901V23.5001C322.53 23.2701 322.47 23.0801 322.34 22.9401C322.21 22.8001 322.03 22.7201 321.79 22.7201H319.71C319.47 22.7201 319.28 22.7901 319.15 22.9201C319.02 23.0501 318.93 23.2401 318.94 23.4801L318.97 24.1901V24.2001Z" fill="white"/>
<path d="M332.19 29.2501V31.5001H330.46V29.2501H325.38L325.08 27.9401L330.57 21.1301H332.18V27.7101H333.69V29.2501H332.18H332.19ZM330.46 27.7101V23.6201L327.24 27.7101H330.46Z" fill="white"/>
</g>
<g opacity="0.7">
<path d="M562.21 21.1201H569.02V22.7501H563.98V25.4701H568.13V27.1001H563.98V31.4901H562.21V21.1201Z" fill="white"/>
<path d="M578.77 21.1201V31.4901H576.82L572.419 23.7501V31.4901H570.77V21.1201H572.719L577.12 28.8401V21.1201H578.77Z" fill="white"/>
<path d="M592.22 33.5901H583.99V32.1101H592.22V33.5901Z" fill="white"/>
<path d="M598.97 24.2001H597.24V23.1301C597.24 22.5401 597.45 22.0501 597.85 21.6601C598.25 21.2701 598.75 21.0701 599.36 21.0701H602.18C602.8 21.0701 603.3 21.2701 603.7 21.6601C604.1 22.0501 604.29 22.5401 604.29 23.1301V24.8401C604.29 25.3701 604.11 25.7901 603.77 26.0801C603.43 26.3701 602.9 26.6601 602.17 26.9301L599.61 27.9101C599.45 27.9701 599.34 28.0301 599.3 28.0501C599.26 28.0801 599.18 28.1201 599.09 28.1801C599 28.2401 598.94 28.3001 598.91 28.3701C598.88 28.4401 598.87 28.5301 598.87 28.6301V29.8801H604.34V31.4901H597.1V28.3201C597.1 28.0301 597.14 27.7901 597.25 27.5701C597.35 27.3501 597.52 27.1701 597.74 27.0101C597.96 26.8501 598.17 26.7201 598.38 26.6201C598.59 26.5201 598.87 26.4001 599.24 26.2601L601.81 25.2801C602 25.2101 602.13 25.1501 602.21 25.1101C602.28 25.0701 602.36 25.0101 602.43 24.9201C602.5 24.8301 602.53 24.7201 602.53 24.5901V23.5001C602.53 23.2701 602.47 23.0801 602.34 22.9401C602.21 22.8001 602.03 22.7201 601.79 22.7201H599.71C599.47 22.7201 599.28 22.7901 599.15 22.9201C599.02 23.0501 598.93 23.2401 598.94 23.4801L598.97 24.1901V24.2001Z" fill="white"/>
<path d="M611.42 23.4701C611.42 23.2201 611.36 23.0401 611.23 22.9101C611.1 22.7801 610.92 22.7101 610.68 22.7101H608.58C608.09 22.7101 607.84 22.9601 607.84 23.4601V26.1101L608.3 25.7401C608.88 25.2601 609.42 25.0301 609.95 25.0301H611.19C611.81 25.0301 612.33 25.2201 612.73 25.6101C613.13 26.0001 613.34 26.4901 613.34 27.0901V29.4801C613.34 30.0701 613.15 30.5601 612.75 30.9501C612.35 31.3401 611.85 31.5301 611.23 31.5301H608.23C607.61 31.5301 607.11 31.3401 606.71 30.9501C606.31 30.5601 606.12 30.0701 606.12 29.4801V23.1401C606.12 22.5501 606.33 22.0601 606.73 21.6701C607.13 21.2801 607.65 21.0801 608.27 21.0801H611.15C611.76 21.0801 612.26 21.2801 612.66 21.6701C613.06 22.0601 613.27 22.5501 613.27 23.1401V24.0501H611.5L611.44 23.4701H611.42ZM607.83 29.2001C607.83 29.7001 608.08 29.9501 608.57 29.9501H610.8C611.29 29.9501 611.54 29.7001 611.54 29.2001V27.3301C611.54 27.1001 611.48 26.9101 611.35 26.7801C611.22 26.6501 611.04 26.5801 610.8 26.5801H609.81C609.26 26.5801 608.76 26.7101 608.29 26.9801L607.83 27.2501V29.2001Z" fill="white"/>
</g>
<g opacity="0.7">
<path d="M2802.25 21.1201H2809.06V22.7501H2804.02V25.4701H2808.17V27.1001H2804.02V31.4901H2802.25V21.1201Z" fill="white"/>
<path d="M2818.8 21.1201V31.4901H2816.85L2812.45 23.7501V31.4901H2810.8V21.1201H2812.75L2817.15 28.8401V21.1201H2818.8Z" fill="white"/>
<path d="M2832.26 33.5901H2824.03V32.1101H2832.26V33.5901Z" fill="white"/>
<path d="M2843.75 29.2501V31.5001H2842.02V29.2501H2836.94L2836.64 27.9401L2842.14 21.1301H2843.75V27.7101H2845.26V29.2501H2843.75ZM2842.02 27.7101V23.6201L2838.8 27.7101H2842.02Z" fill="white"/>
<path d="M2848.43 24.2001H2846.7V23.1301C2846.7 22.5401 2846.91 22.0501 2847.31 21.6601C2847.71 21.2701 2848.21 21.0701 2848.82 21.0701H2851.64C2852.26 21.0701 2852.76 21.2701 2853.16 21.6601C2853.56 22.0501 2853.75 22.5401 2853.75 23.1301V24.8401C2853.75 25.3701 2853.57 25.7901 2853.23 26.0801C2852.89 26.3701 2852.36 26.6601 2851.63 26.9301L2849.08 27.9101C2848.92 27.9701 2848.81 28.0301 2848.77 28.0501C2848.73 28.0801 2848.65 28.1201 2848.56 28.1801C2848.47 28.2401 2848.41 28.3001 2848.38 28.3701C2848.35 28.4401 2848.34 28.5301 2848.34 28.6301V29.8801H2853.81V31.4901H2846.57V28.3201C2846.57 28.0301 2846.61 27.7901 2846.72 27.5701C2846.82 27.3501 2846.99 27.1701 2847.21 27.0101C2847.43 26.8501 2847.64 26.7201 2847.84 26.6201C2848.04 26.5201 2848.33 26.4001 2848.7 26.2601L2851.27 25.2801C2851.46 25.2101 2851.6 25.1501 2851.67 25.1101C2851.74 25.0701 2851.82 25.0101 2851.89 24.9201C2851.96 24.8301 2851.99 24.7201 2851.99 24.5901V23.5001C2851.99 23.2701 2851.93 23.0801 2851.8 22.9401C2851.67 22.8001 2851.49 22.7201 2851.25 22.7201H2849.17C2848.93 22.7201 2848.74 22.7901 2848.61 22.9201C2848.48 23.0501 2848.39 23.2401 2848.4 23.4801L2848.43 24.1901V24.2001Z" fill="white"/>
</g>
<g opacity="0.7">
<path d="M2942.25 21.1201H2949.06V22.7501H2944.02V25.4701H2948.17V27.1001H2944.02V31.4901H2942.25V21.1201Z" fill="white"/>
<path d="M2958.8 21.1201V31.4901H2956.85L2952.45 23.7501V31.4901H2950.8V21.1201H2952.75L2957.15 28.8401V21.1201H2958.8Z" fill="white"/>
<path d="M2972.26 33.5901H2964.03V32.1101H2972.26V33.5901Z" fill="white"/>
<path d="M2983.75 29.2501V31.5001H2982.02V29.2501H2976.94L2976.64 27.9401L2982.14 21.1301H2983.75V27.7101H2985.26V29.2501H2983.75ZM2982.02 27.7101V23.6201L2978.8 27.7101H2982.02Z" fill="white"/>
<path d="M2988.14 29.2201C2988.14 29.4501 2988.21 29.6401 2988.35 29.7701C2988.48 29.9001 2988.68 29.9701 2988.91 29.9701H2991.16C2991.4 29.9701 2991.59 29.9001 2991.72 29.7701C2991.85 29.6401 2991.93 29.4501 2991.93 29.2201V27.7101C2991.93 27.2201 2991.63 26.9701 2991.03 26.9701H2988.83V25.4301H2991.03C2991.33 25.4301 2991.53 25.3701 2991.65 25.2701C2991.77 25.1701 2991.83 24.9701 2991.83 24.6801V23.4301C2991.83 23.2001 2991.77 23.0101 2991.64 22.8801C2991.51 22.7501 2991.33 22.6801 2991.09 22.6801H2989.08C2988.84 22.6801 2988.67 22.7501 2988.53 22.8801C2988.4 23.0101 2988.34 23.2001 2988.34 23.4301V24.1501H2986.57V23.1601C2986.57 22.5701 2986.78 22.0801 2987.18 21.6901C2987.58 21.3001 2988.08 21.1001 2988.69 21.1001H2991.5C2992.11 21.1001 2992.61 21.3001 2993.01 21.6901C2993.41 22.0801 2993.62 22.5701 2993.62 23.1601V24.6401C2993.62 25.3201 2993.31 25.8401 2992.67 26.2001C2993.01 26.3401 2993.28 26.5501 2993.47 26.8201C2993.66 27.0901 2993.75 27.4001 2993.75 27.7401V29.4801C2993.75 30.0701 2993.54 30.5601 2993.14 30.9501C2992.74 31.3401 2992.24 31.5301 2991.63 31.5301H2988.59C2987.98 31.5301 2987.48 31.3401 2987.08 30.9501C2986.68 30.5601 2986.47 30.0701 2986.47 29.4801V28.4901H2988.24L2988.15 29.2201H2988.14Z" fill="white"/>
</g>
<g opacity="0.15">
<path d="M3345.84 131.16H280.95V133.76H3345.84V131.16Z" fill="white"/>
</g>
<g opacity="0.4">
<path d="M3345.85 121.77H3339.21V125.67H3345.85V121.77Z" fill="white"/>
</g>
<g opacity="0.4">
<path d="M287.59 121.77H280.95V125.67H287.59V121.77Z" fill="white"/>
</g>
</g>
<defs>
<clipPath id="clip0_94_376">
<rect width="3628.17" height="133.76" fill="white"/>
</clipPath>
</defs>
</svg>
