<svg width="3628" height="133" viewBox="0 0 3628 133" fill="none" xmlns="http://www.w3.org/2000/svg">
<g clip-path="url(#clip0_94_244)">
<g opacity="0.6">
<path d="M3546.12 0H3521.23V6H3546.12V0Z" fill="white"/>
</g>
<g opacity="0.4">
<path d="M3602.77 84.01H3597.77V95.32H3602.77V84.01Z" fill="white"/>
</g>
<path opacity="0.9" d="M3628.16 84.01H3613.27V95.32H3628.16V84.01Z" fill="#FA4570"/>
<path opacity="0.3" d="M3546.13 43.5198V18.5999H3521.21V43.5198H3546.13Z" fill="#212121"/>
<g opacity="0.75">
<path d="M3539.93 29.78H3527.43V31.78H3539.93V29.78Z" fill="white"/>
</g>
<g opacity="0.6">
<path d="M106.94 0H82.0498V6H106.94V0Z" fill="white"/>
</g>
<path d="M30.3896 84.01H25.3896V95.32H30.3896V84.01Z" fill="white"/>
<path opacity="0.9" d="M14.89 84.01H0V95.32H14.89V84.01Z" fill="#FA4570"/>
<path opacity="0.3" d="M106.95 43.5301V18.6101H82.0302V43.5301H106.95Z" fill="#212121"/>
<g opacity="0.75">
<path d="M100.75 29.78H88.25V31.78H100.75V29.78Z" fill="white"/>
</g>
<g opacity="0.2">
<path d="M1665.84 88.28H1540.95V91.28H1665.84V88.28Z" fill="white"/>
</g>
<g opacity="0.2">
<path d="M1525.84 88.28H1400.95V91.28H1525.84V88.28Z" fill="white"/>
</g>
<g opacity="0.75">
<path d="M1245.84 86.78H1120.95V92.78H1245.84V86.78Z" fill="white"/>
</g>
<g opacity="0.75">
<path d="M1105.84 86.78H980.95V92.78H1105.84V86.78Z" fill="white"/>
</g>
<g opacity="0.2">
<path d="M965.84 88.28H840.95V91.28H965.84V88.28Z" fill="white"/>
</g>
<g opacity="0.2">
<path d="M825.84 88.28H700.95V91.28H825.84V88.28Z" fill="white"/>
</g>
<g opacity="0.2">
<path d="M685.84 88.28H560.95V91.28H685.84V88.28Z" fill="white"/>
</g>
<g opacity="0.75">
<path d="M545.84 86.78H420.95V92.78H545.84V86.78Z" fill="white"/>
</g>
<g opacity="0.2">
<path d="M405.84 88.28H280.95V91.28H405.84V88.28Z" fill="white"/>
</g>
<g opacity="0.7">
<path d="M982.21 68.2002H989.02V69.8302H983.98V72.5502H988.13V74.1802H983.98V78.5702H982.21V68.2002Z" fill="white"/>
<path d="M998.77 68.2002V78.5702H996.82L992.419 70.8302V78.5702H990.77V68.2002H992.719L997.12 75.9202V68.2002H998.77Z" fill="white"/>
<path d="M1012.22 80.6702H1003.99V79.1902H1012.22V80.6702Z" fill="white"/>
<path d="M1019.31 78.6101C1018.68 78.6101 1018.17 78.4401 1017.79 78.0601C1017.41 77.6801 1017.21 77.1801 1017.21 76.5601V70.1901C1017.21 69.5701 1017.4 69.0701 1017.79 68.6901C1018.17 68.3201 1018.68 68.1301 1019.31 68.1301H1022.49C1023.13 68.1301 1023.63 68.3201 1024.01 68.6901C1024.39 69.0701 1024.59 69.5701 1024.59 70.1901V76.5601C1024.59 77.1801 1024.4 77.6801 1024.01 78.0601C1023.63 78.4301 1023.12 78.6101 1022.49 78.6101H1019.31ZM1018.99 76.3101C1018.99 76.5301 1019.05 76.7001 1019.17 76.8101C1019.29 76.9201 1019.45 76.9801 1019.67 76.9801H1022.14C1022.36 76.9801 1022.52 76.9201 1022.64 76.8101C1022.76 76.7001 1022.82 76.5201 1022.82 76.3101V70.4601C1022.82 70.2401 1022.76 70.0701 1022.64 69.9601C1022.52 69.8501 1022.36 69.7901 1022.14 69.7901H1019.67C1019.45 69.7901 1019.29 69.8501 1019.17 69.9601C1019.05 70.0701 1018.99 70.2501 1018.99 70.4601V76.3101Z" fill="white"/>
<path d="M1028.38 78.5702H1026.46L1031.2 69.8302H1025.91V68.2002H1033.31V69.4802L1028.38 78.5702Z" fill="white"/>
</g>
<g opacity="0.7">
<path d="M1122.21 68.2002H1129.02V69.8302H1123.98V72.5502H1128.13V74.1802H1123.98V78.5702H1122.21V68.2002Z" fill="white"/>
<path d="M1138.77 68.2002V78.5702H1136.82L1132.42 70.8302V78.5702H1130.77V68.2002H1132.72L1137.12 75.9202V68.2002H1138.77Z" fill="white"/>
<path d="M1152.22 80.6702H1143.99V79.1902H1152.22V80.6702Z" fill="white"/>
<path d="M1159.31 78.6101C1158.68 78.6101 1158.17 78.4401 1157.79 78.0601C1157.41 77.6801 1157.21 77.1801 1157.21 76.5601V70.1901C1157.21 69.5701 1157.4 69.0701 1157.79 68.6901C1158.17 68.3201 1158.68 68.1301 1159.31 68.1301H1162.49C1163.12 68.1301 1163.63 68.3201 1164.01 68.6901C1164.39 69.0701 1164.59 69.5701 1164.59 70.1901V76.5601C1164.59 77.1801 1164.4 77.6801 1164.01 78.0601C1163.63 78.4301 1163.12 78.6101 1162.49 78.6101H1159.31ZM1158.98 76.3101C1158.98 76.5301 1159.04 76.7001 1159.16 76.8101C1159.28 76.9201 1159.44 76.9801 1159.66 76.9801H1162.13C1162.35 76.9801 1162.51 76.9201 1162.63 76.8101C1162.75 76.7001 1162.81 76.5201 1162.81 76.3101V70.4601C1162.81 70.2401 1162.75 70.0701 1162.63 69.9601C1162.51 69.8501 1162.35 69.7901 1162.13 69.7901H1159.66C1159.44 69.7901 1159.28 69.8501 1159.16 69.9601C1159.04 70.0701 1158.98 70.2501 1158.98 70.4601V76.3101Z" fill="white"/>
<path d="M1173.71 71.7402C1173.68 72.4202 1173.4 72.9401 1172.76 73.3001C1173.1 73.4401 1173.37 73.6502 1173.56 73.9202C1173.75 74.1902 1173.84 74.5001 1173.84 74.8401V76.5702C1173.84 77.1602 1173.63 77.6501 1173.23 78.0401C1172.83 78.4301 1172.33 78.6201 1171.72 78.6201H1168.59C1167.97 78.6201 1167.47 78.4301 1167.07 78.0401C1166.67 77.6501 1166.48 77.1602 1166.48 76.5702V74.8401C1166.48 74.4901 1166.57 74.1801 1166.76 73.9001C1166.95 73.6301 1167.22 73.4101 1167.56 73.2701C1166.92 72.9101 1166.61 72.3902 1166.61 71.7102V70.2102C1166.61 69.6202 1166.82 69.1302 1167.22 68.7402C1167.62 68.3502 1168.14 68.1501 1168.76 68.1501H1171.65C1172.26 68.1501 1172.76 68.3502 1173.16 68.7402C1173.56 69.1302 1173.79 69.6202 1173.77 70.2102L1173.71 71.7402ZM1169.04 74.0602C1168.45 74.0602 1168.15 74.3102 1168.15 74.8102V76.3102C1168.15 76.5402 1168.21 76.7301 1168.34 76.8601C1168.47 76.9901 1168.65 77.0602 1168.89 77.0602H1171.24C1171.48 77.0602 1171.67 76.9901 1171.8 76.8601C1171.93 76.7301 1172.01 76.5402 1172.01 76.3102V74.8102C1172.01 74.3102 1171.72 74.0602 1171.11 74.0602H1169.04ZM1169.03 69.7701C1168.79 69.7701 1168.62 69.8401 1168.48 69.9701C1168.35 70.1001 1168.29 70.2901 1168.29 70.5201V71.7901C1168.29 72.0601 1168.35 72.2502 1168.47 72.3502C1168.59 72.4502 1168.8 72.5101 1169.08 72.5101H1171.13C1171.42 72.5101 1171.63 72.4502 1171.75 72.3502C1171.87 72.2502 1171.93 72.0601 1171.93 71.7901V70.5201C1171.93 70.2901 1171.87 70.1001 1171.74 69.9701C1171.61 69.8401 1171.43 69.7701 1171.19 69.7701H1169.03Z" fill="white"/>
</g>
<g opacity="0.8">
<path d="M1262.21 68.2002H1269.02V69.8302H1263.98V72.5502H1268.13V74.1802H1263.98V78.5702H1262.21V68.2002Z" fill="#FA4570"/>
<path d="M1278.77 68.2002V78.5702H1276.82L1272.42 70.8302V78.5702H1270.77V68.2002H1272.72L1277.12 75.9202V68.2002H1278.77Z" fill="#FA4570"/>
<path d="M1292.22 80.6702H1283.99V79.1902H1292.22V80.6702Z" fill="#FA4570"/>
<path d="M1299.31 78.6101C1298.68 78.6101 1298.17 78.4401 1297.79 78.0601C1297.41 77.6801 1297.21 77.1801 1297.21 76.5601V70.1901C1297.21 69.5701 1297.4 69.0701 1297.79 68.6901C1298.17 68.3201 1298.68 68.1301 1299.31 68.1301H1302.49C1303.13 68.1301 1303.63 68.3201 1304.01 68.6901C1304.39 69.0701 1304.59 69.5701 1304.59 70.1901V76.5601C1304.59 77.1801 1304.4 77.6801 1304.01 78.0601C1303.63 78.4301 1303.12 78.6101 1302.49 78.6101H1299.31ZM1298.99 76.3101C1298.99 76.5301 1299.05 76.7001 1299.17 76.8101C1299.29 76.9201 1299.45 76.9801 1299.67 76.9801H1302.14C1302.36 76.9801 1302.52 76.9201 1302.64 76.8101C1302.76 76.7001 1302.82 76.5201 1302.82 76.3101V70.4601C1302.82 70.2401 1302.76 70.0701 1302.64 69.9601C1302.52 69.8501 1302.36 69.7901 1302.14 69.7901H1299.67C1299.45 69.7901 1299.29 69.8501 1299.17 69.9601C1299.05 70.0701 1298.99 70.2501 1298.99 70.4601V76.3101Z" fill="#FA4570"/>
<path d="M1308.42 76.2502C1308.39 76.7502 1308.67 77.0002 1309.17 77.0002H1311.25C1311.75 77.0002 1312 76.7602 1312 76.2502V73.5002L1311.54 73.8701C1310.96 74.3501 1310.42 74.5901 1309.9 74.5901H1308.63C1308.02 74.5901 1307.52 74.3902 1307.12 74.0002C1306.72 73.6102 1306.53 73.1202 1306.53 72.5302V70.2102C1306.53 69.6202 1306.74 69.1302 1307.14 68.7402C1307.54 68.3502 1308.04 68.1501 1308.65 68.1501H1311.66C1312.27 68.1501 1312.77 68.3502 1313.17 68.7402C1313.57 69.1302 1313.78 69.6202 1313.78 70.2102V76.5501C1313.78 77.1401 1313.57 77.6301 1313.17 78.0201C1312.77 78.4101 1312.27 78.6002 1311.66 78.6002H1308.78C1308.17 78.6002 1307.67 78.4101 1307.27 78.0201C1306.87 77.6301 1306.66 77.1401 1306.66 76.5501V75.6402H1308.43L1308.4 76.2402L1308.42 76.2502ZM1311.99 70.5201C1311.99 70.0201 1311.74 69.7701 1311.24 69.7701H1309.02C1308.78 69.7701 1308.61 69.8302 1308.47 69.9602C1308.33 70.0902 1308.28 70.2801 1308.28 70.5201V72.2901C1308.28 72.7901 1308.53 73.0401 1309.05 73.0401H1310.02C1310.55 73.0401 1311.07 72.9202 1311.54 72.6402L1312 72.3701L1311.98 70.5302L1311.99 70.5201Z" fill="#FA4570"/>
</g>
<g opacity="0.9">
<path d="M2505.84 86.78H2380.95V92.78H2505.84V86.78Z" fill="#FA4570"/>
</g>
<g opacity="0.75">
<path d="M2225.84 86.78H2100.95V92.78H2225.84V86.78Z" fill="white"/>
</g>
<g opacity="0.2">
<path d="M2085.84 88.28H1960.95V91.28H2085.84V88.28Z" fill="white"/>
</g>
<g opacity="0.2">
<path d="M1945.84 88.28H1820.95V91.28H1945.84V88.28Z" fill="white"/>
</g>
<g opacity="0.2">
<path d="M1805.84 88.28H1680.95V91.28H1805.84V88.28Z" fill="white"/>
</g>
<g opacity="0.75">
<path d="M2365.84 86.78H2240.95V92.78H2365.84V86.78Z" fill="white"/>
</g>
<g opacity="0.75">
<path d="M3205.84 86.78H3080.95V92.78H3205.84V86.78Z" fill="white"/>
</g>
<g opacity="0.2">
<path d="M3065.84 88.28H2940.95V91.28H3065.84V88.28Z" fill="white"/>
</g>
<g opacity="0.2">
<path d="M2925.84 88.28H2800.95V91.28H2925.84V88.28Z" fill="white"/>
</g>
<g opacity="0.2">
<path d="M2785.84 88.28H2660.95V91.28H2785.84V88.28Z" fill="white"/>
</g>
<g opacity="0.75">
<path d="M2645.84 86.78H2520.95V92.78H2645.84V86.78Z" fill="white"/>
</g>
<g opacity="0.2">
<path d="M3345.84 88.28H3220.95V91.28H3345.84V88.28Z" fill="white"/>
</g>
<g opacity="0.7">
<path d="M422.21 68.2002H429.02V69.8302H423.98V72.5502H428.13V74.1802H423.98V78.5702H422.21V68.2002Z" fill="white"/>
<path d="M438.77 68.2002V78.5702H436.82L432.42 70.8302V78.5702H430.77V68.2002H432.72L437.12 75.9202V68.2002H438.77Z" fill="white"/>
<path d="M452.22 80.6702H443.99V79.1902H452.22V80.6702Z" fill="white"/>
<path d="M459.31 78.6101C458.68 78.6101 458.17 78.4401 457.79 78.0601C457.41 77.6801 457.21 77.1801 457.21 76.5601V70.1901C457.21 69.5701 457.4 69.0701 457.79 68.6901C458.17 68.3201 458.68 68.1301 459.31 68.1301H462.49C463.13 68.1301 463.63 68.3201 464.01 68.6901C464.39 69.0701 464.59 69.5701 464.59 70.1901V76.5601C464.59 77.1801 464.4 77.6801 464.01 78.0601C463.63 78.4301 463.12 78.6101 462.49 78.6101H459.31ZM458.99 76.3101C458.99 76.5301 459.05 76.7001 459.17 76.8101C459.29 76.9201 459.45 76.9801 459.67 76.9801H462.14C462.36 76.9801 462.52 76.9201 462.64 76.8101C462.76 76.7001 462.82 76.5201 462.82 76.3101V70.4601C462.82 70.2401 462.76 70.0701 462.64 69.9601C462.52 69.8501 462.36 69.7901 462.14 69.7901H459.67C459.45 69.7901 459.29 69.8501 459.17 69.9601C459.05 70.0701 458.99 70.2501 458.99 70.4601V76.3101Z" fill="white"/>
<path d="M468.05 76.2902C468.05 76.5202 468.12 76.7102 468.26 76.8402C468.39 76.9702 468.59 77.0402 468.82 77.0402H471.07C471.31 77.0402 471.5 76.9702 471.63 76.8402C471.76 76.7102 471.84 76.5202 471.84 76.2902V74.7802C471.84 74.2902 471.54 74.0502 470.94 74.0502H468.74V72.5102H470.94C471.24 72.5102 471.44 72.4502 471.56 72.3502C471.68 72.2502 471.74 72.0502 471.74 71.7602V70.5102C471.74 70.2802 471.68 70.0902 471.55 69.9602C471.42 69.8302 471.24 69.7602 471 69.7602H468.99C468.75 69.7602 468.58 69.8302 468.44 69.9602C468.3 70.0902 468.25 70.2802 468.25 70.5102V71.2302H466.48V70.2402C466.48 69.6502 466.69 69.1602 467.09 68.7702C467.49 68.3802 467.99 68.1802 468.6 68.1802H471.41C472.02 68.1802 472.52 68.3802 472.92 68.7702C473.32 69.1602 473.53 69.6502 473.53 70.2402V71.7202C473.53 72.4002 473.22 72.9202 472.58 73.2802C472.92 73.4202 473.19 73.6302 473.38 73.9002C473.57 74.1702 473.66 74.4802 473.66 74.8202V76.5602C473.66 77.1502 473.45 77.6402 473.05 78.0302C472.65 78.4202 472.15 78.6102 471.54 78.6102H468.5C467.89 78.6102 467.39 78.4202 466.99 78.0302C466.59 77.6402 466.38 77.1502 466.38 76.5602V75.5702H468.15L468.06 76.3002L468.05 76.2902Z" fill="white"/>
</g>
<g opacity="0.7">
<path d="M2102.21 68.2H2109.02V69.8299H2103.98V72.5499H2108.13V74.1799H2103.98V78.57H2102.21V68.2Z" fill="white"/>
<path d="M2118.77 68.2V78.57H2116.82L2112.42 70.8299V78.57H2110.77V68.2H2112.72L2117.12 75.92V68.2H2118.77Z" fill="white"/>
<path d="M2132.22 80.6699H2123.99V79.1899H2132.22V80.6699Z" fill="white"/>
<path d="M2138.75 70L2136.86 70.6799V69.21L2139.09 68.2H2140.52V78.57H2138.75V70Z" fill="white"/>
<path d="M2144.77 69.8499V72.9199L2145.24 72.5499C2145.82 72.0899 2146.35 71.8299 2146.89 71.8299H2148.03C2148.64 71.8299 2149.14 72.0199 2149.54 72.4099C2149.94 72.7999 2150.15 73.2899 2150.15 73.8799V76.5699C2150.15 77.1599 2149.96 77.6499 2149.56 78.0399C2149.16 78.4299 2148.66 78.6199 2148.04 78.6199H2145.04C2144.42 78.6199 2143.92 78.4299 2143.52 78.0399C2143.12 77.6499 2142.93 77.1599 2142.93 76.5699V75.5499H2144.7V76.2699C2144.7 76.7699 2144.95 77.0199 2145.44 77.0199H2147.67C2148.16 77.0199 2148.41 76.7699 2148.41 76.2699V74.1199C2148.41 73.8799 2148.35 73.6899 2148.22 73.5599C2148.09 73.4299 2147.91 73.3599 2147.67 73.3599H2146.81C2146.28 73.3599 2145.78 73.4899 2145.3 73.7599L2144.83 74.0299L2143.06 73.5099V68.1899H2149.96V69.8199L2144.78 69.8499H2144.77Z" fill="white"/>
</g>
<g opacity="0.85">
<path d="M2382.21 68.2H2389.02V69.8299H2383.98V72.5499H2388.13V74.1799H2383.98V78.57H2382.21V68.2Z" fill="#FA4570"/>
<path d="M2398.77 68.2V78.57H2396.82L2392.42 70.8299V78.57H2390.77V68.2H2392.72L2397.12 75.92V68.2H2398.77Z" fill="#FA4570"/>
<path d="M2412.22 80.6699H2403.99V79.1899H2412.22V80.6699Z" fill="#FA4570"/>
<path d="M2418.75 70L2416.86 70.6799V69.21L2419.09 68.2H2420.52V78.57H2418.75V70Z" fill="#FA4570"/>
<path d="M2425.03 78.57H2423.11L2427.85 69.8299H2422.56V68.2H2429.96V69.4799L2425.03 78.57Z" fill="#FA4570"/>
</g>
<g opacity="0.7">
<path d="M2242.21 68.2H2249.02V69.8299H2243.98V72.5499H2248.13V74.1799H2243.98V78.57H2242.21V68.2Z" fill="white"/>
<path d="M2258.77 68.2V78.57H2256.82L2252.42 70.8299V78.57H2250.77V68.2H2252.72L2257.12 75.92V68.2H2258.77Z" fill="white"/>
<path d="M2272.22 80.6699H2263.99V79.1899H2272.22V80.6699Z" fill="white"/>
<path d="M2278.75 70L2276.86 70.6799V69.21L2279.09 68.2H2280.52V78.57H2278.75V70Z" fill="white"/>
<path d="M2288.29 70.5399C2288.29 70.2999 2288.23 70.1099 2288.1 69.9799C2287.97 69.8499 2287.79 69.7799 2287.55 69.7799H2285.45C2284.96 69.7799 2284.71 70.0199 2284.71 70.5299V73.1799L2285.17 72.8099C2285.75 72.3299 2286.29 72.0999 2286.82 72.0999H2288.06C2288.68 72.0999 2289.2 72.2899 2289.6 72.6799C2290 73.0699 2290.21 73.5599 2290.21 74.1599V76.5499C2290.21 77.1399 2290.02 77.6299 2289.62 78.0199C2289.22 78.4099 2288.72 78.5999 2288.1 78.5999H2285.1C2284.48 78.5999 2283.98 78.4099 2283.58 78.0199C2283.18 77.6299 2282.99 77.1399 2282.99 76.5499V70.2099C2282.99 69.6199 2283.2 69.1299 2283.6 68.7399C2284 68.3499 2284.52 68.1499 2285.14 68.1499H2288.02C2288.63 68.1499 2289.13 68.3499 2289.53 68.7399C2289.93 69.1299 2290.14 69.6199 2290.14 70.2099V71.1199H2288.37L2288.31 70.5399H2288.29ZM2284.7 76.2699C2284.7 76.7699 2284.95 77.0199 2285.44 77.0199H2287.67C2288.16 77.0199 2288.41 76.7699 2288.41 76.2699V74.3999C2288.41 74.1699 2288.35 73.9799 2288.22 73.8499C2288.09 73.7199 2287.91 73.6499 2287.67 73.6499H2286.68C2286.13 73.6499 2285.63 73.7799 2285.16 74.0499L2284.7 74.3199V76.2599V76.2699Z" fill="white"/>
</g>
<g opacity="0.7">
<path d="M2522.21 68.2H2529.02V69.8299H2523.98V72.5499H2528.13V74.1799H2523.98V78.57H2522.21V68.2Z" fill="white"/>
<path d="M2538.77 68.2V78.57H2536.82L2532.42 70.8299V78.57H2530.77V68.2H2532.72L2537.12 75.92V68.2H2538.77Z" fill="white"/>
<path d="M2552.22 80.6699H2543.99V79.1899H2552.22V80.6699Z" fill="white"/>
<path d="M2558.75 70L2556.86 70.6799V69.21L2559.09 68.2H2560.52V78.57H2558.75V70Z" fill="white"/>
<path d="M2570.11 71.7399C2570.08 72.4199 2569.8 72.9399 2569.16 73.2999C2569.5 73.4399 2569.77 73.6499 2569.96 73.9199C2570.15 74.1899 2570.24 74.4999 2570.24 74.8399V76.5699C2570.24 77.1599 2570.03 77.6499 2569.63 78.0399C2569.23 78.4299 2568.73 78.6199 2568.12 78.6199H2564.99C2564.37 78.6199 2563.87 78.4299 2563.47 78.0399C2563.07 77.6499 2562.88 77.1599 2562.88 76.5699V74.8399C2562.88 74.4899 2562.97 74.1799 2563.16 73.8999C2563.35 73.6299 2563.62 73.4099 2563.96 73.2699C2563.33 72.9099 2563.01 72.3899 2563.01 71.7099V70.2099C2563.01 69.6199 2563.22 69.1299 2563.62 68.7399C2564.02 68.3499 2564.54 68.1499 2565.16 68.1499H2568.06C2568.67 68.1499 2569.17 68.3499 2569.57 68.7399C2569.97 69.1299 2570.21 69.6199 2570.18 70.2099L2570.12 71.7399H2570.11ZM2565.44 74.0599C2564.85 74.0599 2564.55 74.3099 2564.55 74.8099V76.3099C2564.55 76.5399 2564.61 76.7299 2564.74 76.8599C2564.87 76.9899 2565.05 77.0599 2565.29 77.0599H2567.64C2567.88 77.0599 2568.07 76.9899 2568.2 76.8599C2568.33 76.7299 2568.41 76.5399 2568.41 76.3099V74.8099C2568.41 74.3099 2568.11 74.0599 2567.51 74.0599H2565.44ZM2565.42 69.7699C2565.18 69.7699 2565.01 69.8399 2564.87 69.9699C2564.74 70.0999 2564.68 70.2899 2564.68 70.5199V71.7899C2564.68 72.0599 2564.74 72.2499 2564.86 72.3499C2564.98 72.4499 2565.18 72.5099 2565.47 72.5099H2567.52C2567.82 72.5099 2568.02 72.4499 2568.14 72.3499C2568.26 72.2499 2568.32 72.0599 2568.32 71.7899V70.5199C2568.32 70.2899 2568.26 70.0999 2568.13 69.9699C2568 69.8399 2567.82 69.7699 2567.58 69.7699H2565.42Z" fill="white"/>
</g>
<g opacity="0.7">
<path d="M3082.21 68.2H3089.02V69.8299H3083.98V72.5499H3088.13V74.1799H3083.98V78.57H3082.21V68.2Z" fill="white"/>
<path d="M3098.77 68.2V78.57H3096.82L3092.42 70.8299V78.57H3090.77V68.2H3092.72L3097.12 75.92V68.2H3098.77Z" fill="white"/>
<path d="M3112.22 80.6699H3103.99V79.1899H3112.22V80.6699Z" fill="white"/>
<path d="M3118.97 71.2799H3117.24V70.2099C3117.24 69.6199 3117.45 69.1299 3117.85 68.7399C3118.25 68.3499 3118.75 68.1499 3119.36 68.1499H3122.18C3122.8 68.1499 3123.3 68.3499 3123.7 68.7399C3124.1 69.1299 3124.29 69.6199 3124.29 70.2099V71.9199C3124.29 72.4499 3124.11 72.8699 3123.77 73.1599C3123.43 73.4499 3122.9 73.7399 3122.17 74.0099L3119.62 74.9899C3119.46 75.0499 3119.35 75.1099 3119.31 75.1299C3119.27 75.1599 3119.19 75.1999 3119.1 75.2599C3119.01 75.3199 3118.95 75.3799 3118.92 75.4499C3118.89 75.5199 3118.88 75.6099 3118.88 75.7099V76.9599H3124.35V78.5699H3117.11V75.3999C3117.11 75.1099 3117.15 74.8699 3117.26 74.6499C3117.36 74.4299 3117.53 74.2499 3117.75 74.0899C3117.97 73.9299 3118.18 73.7999 3118.39 73.6999C3118.6 73.5999 3118.88 73.4799 3119.25 73.3399L3121.82 72.3599C3122.01 72.2899 3122.14 72.2299 3122.22 72.1899C3122.3 72.1499 3122.37 72.0899 3122.44 71.9999C3122.51 71.9099 3122.54 71.7999 3122.54 71.6699V70.5799C3122.54 70.3499 3122.48 70.1599 3122.35 70.0199C3122.22 69.8799 3122.04 69.7999 3121.8 69.7999H3119.72C3119.48 69.7999 3119.29 69.8699 3119.16 69.9999C3119.03 70.1299 3118.94 70.3199 3118.95 70.5599L3118.98 71.2699L3118.97 71.2799Z" fill="white"/>
<path d="M3127.88 71.2799H3126.15V70.2099C3126.15 69.6199 3126.36 69.1299 3126.76 68.7399C3127.16 68.3499 3127.66 68.1499 3128.27 68.1499H3131.09C3131.71 68.1499 3132.21 68.3499 3132.61 68.7399C3133.01 69.1299 3133.2 69.6199 3133.2 70.2099V71.9199C3133.2 72.4499 3133.02 72.8699 3132.68 73.1599C3132.34 73.4499 3131.81 73.7399 3131.08 74.0099L3128.53 74.9899C3128.37 75.0499 3128.26 75.1099 3128.22 75.1299C3128.18 75.1599 3128.1 75.1999 3128.01 75.2599C3127.92 75.3199 3127.86 75.3799 3127.83 75.4499C3127.8 75.5199 3127.79 75.6099 3127.79 75.7099V76.9599H3133.26V78.5699H3126.02V75.3999C3126.02 75.1099 3126.06 74.8699 3126.17 74.6499C3126.27 74.4299 3126.44 74.2499 3126.66 74.0899C3126.88 73.9299 3127.09 73.7999 3127.3 73.6999C3127.51 73.5999 3127.79 73.4799 3128.16 73.3399L3130.73 72.3599C3130.92 72.2899 3131.05 72.2299 3131.13 72.1899C3131.21 72.1499 3131.28 72.0899 3131.35 71.9999C3131.42 71.9099 3131.45 71.7999 3131.45 71.6699V70.5799C3131.45 70.3499 3131.39 70.1599 3131.26 70.0199C3131.13 69.8799 3130.95 69.7999 3130.71 69.7999H3128.63C3128.39 69.7999 3128.2 69.8699 3128.07 69.9999C3127.94 70.1299 3127.85 70.3199 3127.86 70.5599L3127.89 71.2699L3127.88 71.2799Z" fill="white"/>
</g>
<g opacity="0.7">
<path d="M243.95 127.08H220.95V133.08H243.95V127.08Z" fill="white"/>
</g>
<g opacity="0.7">
<path d="M3405.85 127.08H3382.85V133.08H3405.85V127.08Z" fill="white"/>
</g>
<g opacity="0.9">
<path d="M1385.84 86.78H1260.95V92.78H1385.84V86.78Z" fill="#FA4570"/>
</g>
<g opacity="0.15">
<path d="M3345.84 0.0100098H280.95V2.61001H3345.84V0.0100098Z" fill="white"/>
</g>
<g opacity="0.4">
<path d="M3345.85 8.1001H3339.21V12.0001H3345.85V8.1001Z" fill="white"/>
</g>
<g opacity="0.4">
<path d="M287.59 8.1001H280.95V12.0001H287.59V8.1001Z" fill="white"/>
</g>
</g>
<defs>
<clipPath id="clip0_94_244">
<rect width="3628" height="133" fill="white"/>
</clipPath>
</defs>
</svg>
